<svg xmlns="http://www.w3.org/2000/svg" viewBox="0 0 57.63 65"><title>Asset 3</title><path d="M48.71,0s2.68,10.61-2.33,17-8.86,7.52-8.1,10c.34,1.13,6.73,5,3.95,8.53s-4.23.47-4.23.47v5.38s1.87-.93,2.36-.37,1.48,4.43,2,5.56,2.11,1,4.26-1.21l-3.9-5.66a34.62,34.62,0,0,0,3.69,3.61c1.17.81,2.26.71,4.28-2l-5.88-3.11a28.76,28.76,0,0,0,4.35,1.56c1.63.34,3-.19,4.68-3a18.82,18.82,0,0,1-7.64-.25s5.81,0,9.11-3a19.71,19.71,0,0,1-8.57,1s5.65-.37,9-3.7c0,0-2.33,1.12-8.28,1.37,0,0,6.31-.53,9.3-5.51,0,0-4.13,3.27-8.84,3.36,0,0,12.16-2.41,9.15-16,0,0-.85,9.93-8.26,11.09,0,0,11.66-7.61,3.94-19.77,0,0,4.42,9-5.2,16.06C47.63,21.63,56.47,13.43,48.71,0Z" fill="#357cbd"/><path d="M8.92,0S6.24,10.61,11.25,17s8.86,7.52,8.1,10c-.34,1.13-6.73,5-4,8.53s4.23.47,4.23.47v5.38s-1.88-.93-2.36-.37-1.49,4.43-2,5.56-2.12,1-4.26-1.21l3.9-5.66a34.62,34.62,0,0,1-3.69,3.61c-1.18.81-2.26.71-4.29-2l5.89-3.11a28.76,28.76,0,0,1-4.35,1.56c-1.63.34-3-.19-4.68-3a18.82,18.82,0,0,0,7.64-.25s-5.82,0-9.11-3a19.71,19.71,0,0,0,8.57,1s-5.65-.37-9-3.7c0,0,2.33,1.12,8.27,1.37,0,0-6.31-.53-9.3-5.51,0,0,4.14,3.27,8.85,3.36,0,0-12.17-2.41-9.15-16,0,0,.85,9.93,8.25,11.09,0,0-11.65-7.61-3.93-19.77,0,0-4.42,9,5.2,16.06C10,21.63,1.16,13.43,8.92,0Z" fill="#357cbd"/><path d="M43.9,23.87s-1.54-1.77,1.71-4.58c3.43-3,4.24-6.77,4.88-9.49A16.83,16.83,0,0,1,48.34,19C45.83,23.05,44.4,22.32,43.9,23.87Z" fill="#f7eac8"/><path d="M54,16a14.76,14.76,0,0,1-5.74,6.42c-3.53,2.22-3.38,5-3.38,5,.77-1.4,1.14-.77,4.49-3.67A13.09,13.09,0,0,0,54,16Z" fill="#f7eac8"/><path d="M48.23,26.74c-3.55.45-2,2.7-2,2.7a13.9,13.9,0,0,0,5.09-1.93A10.48,10.48,0,0,0,56,22.16,12,12,0,0,1,48.23,26.74Z" fill="#f7eac8"/><path d="M47,30.72c-1.24-.17-1.25,1.34-1.25,1.34,5.17-.24,7.31-2.44,7.31-2.44A11.29,11.29,0,0,1,47,30.72Z" fill="#f7eac8"/><path d="M46.88,32.92c-1.7-.23-1.35,1-1.35,1,3.29.58,6.86-1.39,6.86-1.39A16.45,16.45,0,0,1,46.88,32.92Z" fill="#f7eac8"/><path d="M46.09,35.09c-.42-.13-.86.85-.86.85a10.6,10.6,0,0,0,5.43-.54A17.35,17.35,0,0,1,46.09,35.09Z" fill="#f7eac8"/><path d="M44.48,38.83c-.3-.25-.45.93-.45.93a8.83,8.83,0,0,0,4.49,1.9S46.2,40.19,44.48,38.83Z" fill="#f7eac8"/><path d="M13.72,23.87s1.55-1.77-1.7-4.58c-3.43-3-4.24-6.77-4.88-9.49A16.83,16.83,0,0,0,9.29,19C11.8,23.05,13.23,22.32,13.72,23.87Z" fill="#f7eac8"/><path d="M3.59,16a14.73,14.73,0,0,0,5.73,6.42c3.54,2.22,3.39,5,3.39,5-.77-1.4-1.15-.77-4.49-3.67A13.09,13.09,0,0,1,3.59,16Z" fill="#f7eac8"/><path d="M9.39,26.74c3.56.45,2,2.7,2,2.7a13.9,13.9,0,0,1-5.09-1.93,10.48,10.48,0,0,1-4.68-5.35A12,12,0,0,0,9.39,26.74Z" fill="#f7eac8"/><path d="M10.65,30.72c1.24-.17,1.26,1.34,1.26,1.34-5.17-.24-7.31-2.44-7.31-2.44A11.27,11.27,0,0,0,10.65,30.72Z" fill="#f7eac8"/><path d="M10.75,32.92c1.7-.23,1.35,1,1.35,1-3.29.58-6.86-1.39-6.86-1.39A16.45,16.45,0,0,0,10.75,32.92Z" fill="#f7eac8"/><path d="M11.54,35.09c.42-.13.86.85.86.85A10.6,10.6,0,0,1,7,35.4,17.37,17.37,0,0,0,11.54,35.09Z" fill="#f7eac8"/><path d="M45.5,36.89c-.35-.22-.12,1.09-.12,1.09a9.36,9.36,0,0,0,5.44.46A13.58,13.58,0,0,1,45.5,36.89Z" fill="#f7eac8"/><path d="M12.13,36.89a13.58,13.58,0,0,1-5.32,1.55A9.36,9.36,0,0,0,12.25,38S12.48,36.67,12.13,36.89Z" fill="#f7eac8"/><path d="M13.15,38.83c.3-.25.45.93.45.93a8.83,8.83,0,0,1-4.49,1.9S11.43,40.19,13.15,38.83Z" fill="#f7eac8"/><path d="M16.14,55.34l12.69,8.23,12.66-8.23,6.64-34.12L28.8,11.68,9.5,21.22Z" fill="#f7eac8"/><path d="M17.51,53.42l11.31,7.34,11.3-7.34L46,23,28.8,14.49,11.59,23Z" fill="#357cbd"/><path d="M28.83,65,14.68,56l-7-35.36L28.8,10.38,50,20.63,43,56ZM16.35,54.72l12.47,8,12.46-8L47.8,21.79l-19-9.21-19,9.21Z" fill="#357cbd"/><polygon points="40.21 10.71 28.81 7.09 17.42 10.71 21.59 31.77 28.81 29.66 36.04 31.77 40.21 10.71" fill="#f7eac8"/><path d="M36.34,32l-7.53-2.18L21.29,32,17,10.45,28.81,6.28l11.86,4.17Zm-7.53-3,6.92,2,4-20L28.81,7.13,17.88,11l4,20Z" fill="#357cbd"/><polygon points="38.16 12.06 28.81 8.71 19.47 12.06 23.11 31.56 28.81 29.61 34.52 31.56 38.16 12.06" fill="#357cbd"/><polygon points="16.08 23.11 16.53 24.51 18 24.51 16.81 25.37 17.27 26.77 16.08 25.91 14.89 26.77 15.35 25.37 14.16 24.51 15.63 24.51 16.08 23.11" fill="#f7eac8"/><polygon points="41.55 23.11 42 24.51 43.47 24.51 42.28 25.37 42.74 26.77 41.55 25.91 40.36 26.77 40.82 25.37 39.63 24.51 41.1 24.51 41.55 23.11" fill="#f7eac8"/><circle cx="28.81" cy="38.99" r="14.62" fill="#f7eac8"/><text transform="matrix(0.99, -0.13, 0.13, 0.99, 25.93, 22.89)" font-size="2.66" fill="#f7eac8" font-family="Montserrat">2</text><text transform="matrix(1, -0.03, 0.03, 1, 27.48, 22.69)" font-size="2.66" fill="#f7eac8" font-family="Montserrat">0</text><text transform="matrix(1, 0.06, -0.06, 1, 29.31, 22.66)" font-size="2.66" fill="#f7eac8" font-family="Montserrat">1</text><text transform="matrix(0.99, 0.14, -0.14, 0.99, 30.31, 22.71)" font-size="2.66" fill="#f7eac8" font-family="Montserrat">9</text><circle cx="28.81" cy="38.99" r="12.65" fill="#357cbd"/><circle cx="28.81" cy="38.99" r="11.38" transform="translate(-14.42 60.93) rotate(-80.44)" fill="#f7eac8"/><path d="M38.76,44.7l-4.06.6-3.07-3.13,1.43-4.41L37,36l3.19,1.87a11.43,11.43,0,0,0-2.55-6.18l-.85,3.84-4,1.73-3.79-2.75V30.32L32.21,28a11.56,11.56,0,0,0-6.79,0l3.14,2.28v4.22l-3.79,2.75-4-1.73L20,31.72A11.43,11.43,0,0,0,17.4,37.9L20.59,36l4,1.73L26,42.17,22.93,45.3l-4.06-.6a11.47,11.47,0,0,0,5.06,4.66l-.63-3.7,3-3.08h5l3,3.08-.63,3.7A11.47,11.47,0,0,0,38.76,44.7Z" fill="#357cbd"/><path d="M25.68,17.55V19A10.91,10.91,0,0,1,32,19V17.55a.39.39,0,0,0,.4-.42,9.6,9.6,0,0,0-3.54-.61,9.59,9.59,0,0,0-3.53.61A.39.39,0,0,0,25.68,17.55Z" fill="#f7eac8"/><path d="M32.45,14.3a1.81,1.81,0,0,1,.14,1.07.7.7,0,0,1-.9.6c-.32-.13-.48-.6-.24-1.24a1.12,1.12,0,0,1,.73-.71,1.82,1.82,0,0,1-.55-1.77,2.21,2.21,0,0,1-1.25,1.36,1.88,1.88,0,0,1,.29,1.24.83.83,0,0,1-.81.8c-.38,0-.65-.48-.59-1.23.1-1.47,1-1.77,1-1.77a2,2,0,0,1-1.44-1.49,2,2,0,0,1-1.43,1.49s.88.3,1,1.77c.06.75-.21,1.23-.59,1.23a.83.83,0,0,1-.81-.8,1.88,1.88,0,0,1,.29-1.24A2.21,2.21,0,0,1,26,12.25,1.81,1.81,0,0,1,25.44,14a1.12,1.12,0,0,1,.74.71c.24.64.08,1.11-.24,1.24a.7.7,0,0,1-.9-.6,1.81,1.81,0,0,1,.14-1.07A4.14,4.14,0,0,1,23.39,13l1.91,3.66a9.71,9.71,0,0,1,3.51-.59,9.73,9.73,0,0,1,3.52.59L34.24,13A4.14,4.14,0,0,1,32.45,14.3Z" fill="#f7eac8"/><path d="M27.79,17.64a.32.32,0,1,1-.31-.31A.31.31,0,0,1,27.79,17.64Z" fill="#357cbd"/><circle cx="26.54" cy="17.76" r="0.27" fill="#357cbd"/><path d="M29.83,17.64a.32.32,0,0,0,.32.32.32.32,0,1,0,0-.63A.32.32,0,0,0,29.83,17.64Z" fill="#357cbd"/><circle cx="31.09" cy="17.76" r="0.27" fill="#357cbd"/><rect x="28.4" y="17.2" width="0.84" height="0.84" transform="translate(-4.02 25.54) rotate(-45)" fill="#357cbd"/><circle cx="23.45" cy="13.08" r="0.27" fill="#f7eac8"/><path d="M26.26,12.25A.27.27,0,1,1,26,12,.27.27,0,0,1,26.26,12.25Z" fill="#f7eac8"/><circle cx="34.18" cy="13.08" r="0.27" fill="#f7eac8"/><path d="M31.37,12.25a.27.27,0,1,0,.27-.27A.27.27,0,0,0,31.37,12.25Z" fill="#f7eac8"/><circle cx="28.81" cy="11.16" r="0.38" fill="#f7eac8"/></svg>