<svg xmlns="http://www.w3.org/2000/svg" viewBox="0 0 433.29 488.71"><title>Asset 1</title><path d="M366.25,0s20.13,79.74-17.54,128.11c-37.22,47.79-66.65,56.53-60.9,75.48,2.58,8.51,50.58,37.51,29.7,64.17s-31.79,3.51-31.79,3.51v40.45s14.08-7,17.71-2.8,11.18,33.32,15.44,41.85c4.09,8.19,15.89,7.25,32-9.12l-29.29-42.56s18.85,21.05,27.7,27.13,17,5.38,32.24-14.73L337.26,288.1s20.48,9.15,32.74,11.72,22.65-1.43,35.14-22.24c0,0-29.92,5.85-57.39-1.87,0,0,43.7.15,68.5-22.21,0,0-28.36,11.45-64.46,7.71,0,0,42.45-2.8,67.88-27.83,0,0-17.48,8.42-62.21,10.29,0,0,47.45-4,69.93-41.39,0,0-31.11,24.56-66.52,25.26,0,0,91.48-18.12,68.8-120.42,0,0-6.38,74.67-62.05,83.38,0,0,87.64-57.18,29.58-148.59,0,0,33.26,67.7-39.08,120.75C358.12,162.66,424.59,101,366.25,0Z" fill="#357cbd"/><path d="M67,0S46.91,79.74,84.58,128.11c37.22,47.79,66.65,56.53,60.9,75.48-2.58,8.51-50.59,37.51-29.7,64.17s31.78,3.51,31.78,3.51v40.45s-14.07-7-17.71-2.8-11.17,33.32-15.43,41.85c-4.09,8.19-15.9,7.25-32-9.12l29.28-42.56S92.85,320.14,84,326.22s-17,5.38-32.24-14.73L96,288.1s-20.48,9.15-32.74,11.72-22.66-1.43-35.14-22.24c0,0,29.91,5.85,57.38-1.87,0,0-43.69.15-68.5-22.21,0,0,28.37,11.45,64.47,7.71,0,0-42.46-2.8-67.88-27.83,0,0,17.48,8.42,62.2,10.29,0,0-47.45-4-69.92-41.39,0,0,31.1,24.56,66.52,25.26,0,0-91.48-18.12-68.81-120.42,0,0,6.39,74.67,62.06,83.38,0,0-87.65-57.18-29.58-148.59,0,0-33.27,67.7,39.07,120.75C75.16,162.66,8.7,101,67,0Z" fill="#357cbd"/><path d="M330.1,179.46S318.51,166.16,343,145c25.76-22.29,31.87-50.92,36.66-71.3,0,0,3.25,38-16.17,69.22C344.56,173.3,333.8,167.81,330.1,179.46Z" fill="#f7eac8"/><path d="M406.33,120.36c-7.88,15.82-18.73,33-43.15,48.3-26.61,16.68-25.43,37.51-25.43,37.51,5.74-10.52,8.58-5.78,33.72-27.57C403.08,151.19,406.33,120.36,406.33,120.36Z" fill="#f7eac8"/><path d="M362.65,201c-26.75,3.44-14.91,20.32-14.91,20.32,5.71-1.65,11.47-.24,38.23-14.48,26.36-14,35.19-40.22,35.19-40.22C413.73,178.78,389.58,197.55,362.65,201Z" fill="#f7eac8"/><path d="M353.18,231c-9.33-1.31-9.47,10.08-9.47,10.08,38.91-1.85,55-18.37,55-18.37S376.69,234.28,353.18,231Z" fill="#f7eac8"/><path d="M352.44,247.54c-12.79-1.79-10.14,7.9-10.14,7.9,24.74,4.33,51.59-10.52,51.59-10.52S372.48,250.34,352.44,247.54Z" fill="#f7eac8"/><path d="M346.5,263.85c-3.14-1-6.43,6.37-6.43,6.37,21.28,4.08,40.82-4.08,40.82-4.08S357.39,267.42,346.5,263.85Z" fill="#f7eac8"/><path d="M334.44,291.92C332.15,290.09,331,299,331,299c15.43,12.85,33.8,14.25,33.8,14.25S347.34,302.2,334.44,291.92Z" fill="#f7eac8"/><path d="M103.19,179.46s11.58-13.3-12.85-34.44C64.57,122.73,58.47,94.1,53.67,73.72c0,0-3.24,38,16.17,69.22C88.72,173.3,99.48,167.81,103.19,179.46Z" fill="#f7eac8"/><path d="M27,120.36c7.88,15.82,18.73,33,43.15,48.3,26.6,16.68,25.42,37.51,25.42,37.51-5.74-10.52-8.58-5.78-33.71-27.57C30.21,151.19,27,120.36,27,120.36Z" fill="#f7eac8"/><path d="M70.64,201c26.75,3.44,14.91,20.32,14.91,20.32-5.71-1.65-11.48-.24-38.23-14.48-26.36-14-35.19-40.22-35.19-40.22C19.56,178.78,43.7,197.55,70.64,201Z" fill="#f7eac8"/><path d="M80.1,231c9.33-1.31,9.47,10.08,9.47,10.08-38.9-1.85-55-18.37-55-18.37S56.6,234.28,80.1,231Z" fill="#f7eac8"/><path d="M80.85,247.54c12.78-1.79,10.14,7.9,10.14,7.9-24.74,4.33-51.6-10.52-51.6-10.52S60.81,250.34,80.85,247.54Z" fill="#f7eac8"/><path d="M86.78,263.85c3.15-1,6.44,6.37,6.44,6.37-21.28,4.08-40.83-4.08-40.83-4.08S75.9,267.42,86.78,263.85Z" fill="#f7eac8"/><path d="M342.11,277.38c-2.64-1.71-.93,8.19-.93,8.19,24.39,8.56,40.92,3.47,40.92,3.47S357.42,287.23,342.11,277.38Z" fill="#f7eac8"/><path d="M91.17,277.38c-15.3,9.85-40,11.66-40,11.66s16.53,5.09,40.93-3.47C92.11,285.57,93.82,275.67,91.17,277.38Z" fill="#f7eac8"/><path d="M98.84,291.92c2.3-1.83,3.43,7.05,3.43,7.05-15.43,12.85-33.81,14.25-33.81,14.25S86,302.2,98.84,291.92Z" fill="#f7eac8"/><path d="M121.33,416.06l95.39,61.88L312,416.06l49.93-256.53L216.56,87.83,71.41,159.53Z" fill="#f7eac8"/><path d="M131.65,401.65l85.07,55.18,84.92-55.18,44.52-228.77L216.57,108.94,87.13,172.88Z" fill="#357cbd"/><path d="M216.73,488.71,110.38,421,57.68,155.13,216.56,78.07l159,77.05L322.91,421ZM123,411.43l93.77,59.73,93.62-59.73,49.08-247.61L216.56,94.61,73.86,163.82Z" fill="#357cbd"/><polygon points="302.32 80.55 216.64 53.34 130.97 80.55 162.34 238.86 216.64 223.02 270.95 238.86 302.32 80.55" fill="#f7eac8"/><path d="M273.25,240.79l-56.61-16.32L160,240.79,127.51,78.56l89.13-31.33,89.13,31.33Zm-56.61-22.57,52,15L298.87,82.5,216.64,53.59,134.42,82.5l30.22,150.72Z" fill="#357cbd"/><polygon points="286.87 90.71 216.64 65.52 146.42 90.71 173.77 237.27 216.64 222.6 259.52 237.27 286.87 90.71" fill="#357cbd"/><polygon points="120.89 173.79 124.3 184.28 135.33 184.28 126.41 190.77 129.81 201.26 120.89 194.77 111.97 201.26 115.38 190.77 106.45 184.28 117.48 184.28 120.89 173.79" fill="#f7eac8"/><polygon points="312.4 173.79 315.8 184.28 326.83 184.28 317.91 190.77 321.32 201.26 312.4 194.77 303.47 201.26 306.88 190.77 297.96 184.28 308.99 184.28 312.4 173.79" fill="#f7eac8"/><circle cx="216.64" cy="293.15" r="109.93" fill="#f7eac8"/><text transform="translate(195.07 172.11) rotate(-7.29)" font-size="20" fill="#f7eac8" font-family="Montserrat">2</text><text transform="matrix(1, -0.03, 0.03, 1, 206.6, 170.57)" font-size="20" fill="#f7eac8" font-family="Montserrat">0</text><text transform="matrix(1, 0.06, -0.06, 1, 220.26, 170.35)" font-size="20" fill="#f7eac8" font-family="Montserrat">1</text><text transform="translate(227.83 170.71) rotate(8.03)" font-size="20" fill="#f7eac8" font-family="Montserrat">9</text><circle cx="216.64" cy="293.15" r="95.11" fill="#357cbd"/><circle cx="216.64" cy="293.15" r="85.6" transform="translate(-143.84 239.05) rotate(-45)" fill="#f7eac8"/><path d="M291.39,336.09l-30.53,4.51L237.78,317l10.76-33.11,29.92-13.05,24,14.1a85.88,85.88,0,0,0-19.16-46.48l-6.37,28.86-29.86,13-28.5-20.7V228l23.63-17.16a86.67,86.67,0,0,0-51.09,0L214.72,228v31.7l-28.49,20.7-29.86-13L150,238.49A85.8,85.8,0,0,0,130.84,285l24-14.1,29.92,13.05L195.51,317,172.43,340.6l-30.54-4.51a86.61,86.61,0,0,0,38,35l-4.71-27.85,22.63-23.11h37.69l22.62,23.11-4.71,27.85A86.55,86.55,0,0,0,291.39,336.09Z" fill="#357cbd"/><path d="M425.38,363.39l-11.3-5.2A385.14,385.14,0,0,0,372,341.6L375.46,327l-3.33-1.47c-51.61-16.57-103.92-25-155.49-25s-103.87,8.41-155.48,25l-3.27,1.05,3.43,14.56c-13.57,4.85-29,11-42.11,17l-11.3,5.2,11.15,5.52a360.14,360.14,0,0,1,32.11,17.55c-5.41,12.79-10.47,25.86-15.05,38.92l-4.51,12.85,12.48-5.44c15.88-6.91,31.47-13,47.64-18.59l5-1.75-2.95-14a445.51,445.51,0,0,1,122.88-17.74,445.88,445.88,0,0,1,122.89,17.73l-3,14.06,5,1.73c16.17,5.6,31.76,11.68,47.63,18.59l12.49,5.44-4.51-12.85c-4.58-13.06-9.64-26.13-15.05-38.92a360.14,360.14,0,0,1,32.11-17.55Z" fill="#357cbd"/><path d="M75.74,401q-6.52-27-13.06-54.08-20.83,7.36-41,16.65a376.19,376.19,0,0,1,37,20.49q-9.2,21.3-16.92,43.27c15.91-6.93,31.71-13.11,48.07-18.76l0-.08C84.58,405.59,81.5,403.94,75.74,401Z" fill="#f7eac8"/><path d="M411.6,363.59q-20.14-9.27-41-16.65-6.53,27-13.07,54.07l-.06,0,0,0c-5.75,2.94-8.83,4.59-14,7.5l0,.08c16.35,5.65,32.15,11.83,48.06,18.76q-7.69-22-16.92-43.27A377.51,377.51,0,0,1,411.6,363.59Z" fill="#f7eac8"/><path d="M368.74,331q-152.21-49-304.19,0,7.65,32.52,15.29,65c91.58-29.2,182-29.2,273.61,0Q361.1,363.53,368.74,331Z" fill="#f7eac8"/><path d="M193.05,131.93v11a82.49,82.49,0,0,1,47.18,0v-11c2.83-.26,3-2.31,3-3.16-6.95-2.81-16.29-4.54-26.57-4.54S197,126,190.09,128.76C190,129.6,190.21,131.67,193.05,131.93Z" fill="#f7eac8"/><path d="M244,107.51s2,4.24,1.08,8c-1.11,4.41-4.58,5.36-6.77,4.51-2.45-1-3.6-4.47-1.8-9.3a8.24,8.24,0,0,1,5.5-5.32s-5.23-3.52-4.15-13.36c0,0-2.74,8.38-9.41,10.22a14.19,14.19,0,0,1,2.19,9.37c-.58,3.93-3.19,6-6.08,6s-4.89-3.6-4.48-9.24c.79-11.06,7.36-13.3,7.36-13.3s-9.61-2.55-10.77-11.21c-1.16,8.66-10.77,11.21-10.77,11.21s6.58,2.24,7.37,13.3c.4,5.64-1.59,9.24-4.48,9.24s-5.51-2.06-6.08-6a14.22,14.22,0,0,1,2.18-9.37c-6.67-1.84-9.4-10.22-9.4-10.22,1.08,9.84-4.16,13.36-4.16,13.36a8.26,8.26,0,0,1,5.51,5.32c1.79,4.83.65,8.35-1.81,9.3-2.18.85-5.65-.1-6.77-4.51-1-3.8,1.09-8,1.09-8a30.73,30.73,0,0,1-13.45-9.57l14.36,27.58c6.92-2.78,16.21-4.48,26.41-4.49s19.49,1.71,26.41,4.49l14.37-27.58A30.73,30.73,0,0,1,244,107.51Z" fill="#f7eac8"/><path d="M209,132.65a2.38,2.38,0,1,1-2.38-2.38A2.38,2.38,0,0,1,209,132.65Z" fill="#357cbd"/><circle cx="199.57" cy="133.54" r="2.02" fill="#357cbd"/><path d="M224.31,132.65a2.38,2.38,0,1,0,2.38-2.38A2.39,2.39,0,0,0,224.31,132.65Z" fill="#357cbd"/><circle cx="233.72" cy="133.54" r="2.02" fill="#357cbd"/><rect x="213.49" y="129.33" width="6.3" height="6.3" transform="translate(-30.22 191.99) rotate(-45)" fill="#357cbd"/><circle cx="176.28" cy="98.32" r="2.03" fill="#f7eac8"/><path d="M197.43,92.12a2,2,0,1,1-2-2A2,2,0,0,1,197.43,92.12Z" fill="#f7eac8"/><circle cx="257" cy="98.32" r="2.03" fill="#f7eac8"/><path d="M235.85,92.12a2,2,0,1,0,2-2A2,2,0,0,0,235.85,92.12Z" fill="#f7eac8"/><circle cx="216.64" cy="83.91" r="2.88" fill="#f7eac8"/></svg>