<svg xmlns="http://www.w3.org/2000/svg" viewBox="0 0 161.93 50"><title>Asset 1</title><path d="M37.47,0s2.06,8.16-1.79,13.11-6.82,5.78-6.23,7.72c.26.87,5.17,3.84,3,6.56s-3.25.36-3.25.36v4.14s1.44-.72,1.81-.28,1.15,3.4,1.58,4.28,1.63.74,3.28-.94l-3-4.35a27.09,27.09,0,0,0,2.84,2.78c.9.62,1.74.55,3.29-1.51l-4.52-2.39a22.32,22.32,0,0,0,3.34,1.19c1.26.27,2.32-.14,3.6-2.27a14.47,14.47,0,0,1-5.87-.19s4.47,0,7-2.27a15.17,15.17,0,0,1-6.6.78s4.35-.28,6.95-2.84c0,0-1.79.86-6.37,1.05,0,0,4.86-.41,7.16-4.23a13,13,0,0,1-6.81,2.58S46.28,21.43,44,11c0,0-.65,7.64-6.35,8.53,0,0,9-5.85,3-15.2,0,0,3.4,6.92-4,12.35C36.64,16.64,43.44,10.33,37.47,0Z" fill="#357cbd"/><path d="M6.86,0S4.8,8.16,8.65,13.11s6.82,5.78,6.23,7.72c-.26.87-5.17,3.84-3,6.56s3.25.36,3.25.36v4.14s-1.44-.72-1.81-.28-1.15,3.4-1.58,4.28-1.63.74-3.28-.94l3-4.35a27.09,27.09,0,0,1-2.84,2.78c-.9.62-1.74.55-3.29-1.51l4.52-2.39a22.15,22.15,0,0,1-3.35,1.19c-1.25.27-2.31-.14-3.59-2.27a14.47,14.47,0,0,0,5.87-.19s-4.47,0-7-2.27a15.17,15.17,0,0,0,6.6.78S4,26.44,1.39,23.88c0,0,1.79.86,6.37,1.05,0,0-4.86-.41-7.16-4.23a13,13,0,0,0,6.81,2.58S-1.95,21.43.37,11c0,0,.65,7.64,6.35,8.53,0,0-9-5.85-3-15.2,0,0-3.4,6.92,4,12.35C7.69,16.64.89,10.33,6.86,0Z" fill="#357cbd"/><path d="M33.77,18.36S32.59,17,35.09,14.84s3.26-5.21,3.75-7.3a12.91,12.91,0,0,1-1.66,7.08C35.25,17.73,34.15,17.17,33.77,18.36Z" fill="#f7eac8"/><path d="M41.57,12.31a11.33,11.33,0,0,1-4.41,5c-2.73,1.7-2.6,3.83-2.6,3.83.58-1.07.87-.59,3.45-2.82A10.07,10.07,0,0,0,41.57,12.31Z" fill="#f7eac8"/><path d="M37.1,20.57c-2.73.35-1.52,2.08-1.52,2.08a10.86,10.86,0,0,0,3.91-1.49,8,8,0,0,0,3.6-4.11A9.25,9.25,0,0,1,37.1,20.57Z" fill="#f7eac8"/><path d="M36.13,23.63c-1-.13-1,1-1,1,4-.19,5.62-1.88,5.62-1.88A8.64,8.64,0,0,1,36.13,23.63Z" fill="#f7eac8"/><path d="M36.06,25.33c-1.31-.19-1,.8-1,.8a9.34,9.34,0,0,0,5.28-1.07A12.9,12.9,0,0,1,36.06,25.33Z" fill="#f7eac8"/><path d="M35.45,27c-.32-.1-.66.66-.66.66A8.2,8.2,0,0,0,39,27.23,13.37,13.37,0,0,1,35.45,27Z" fill="#f7eac8"/><path d="M34.22,29.87c-.24-.19-.35.72-.35.72a6.86,6.86,0,0,0,3.46,1.46S35.54,30.92,34.22,29.87Z" fill="#f7eac8"/><path d="M10.56,18.36S11.74,17,9.24,14.84,6,9.63,5.49,7.54a12.91,12.91,0,0,0,1.66,7.08C9.08,17.73,10.18,17.17,10.56,18.36Z" fill="#f7eac8"/><path d="M2.76,12.31a11.33,11.33,0,0,0,4.41,5c2.72,1.7,2.6,3.83,2.6,3.83C9.19,20,8.9,20.5,6.32,18.27A10.07,10.07,0,0,1,2.76,12.31Z" fill="#f7eac8"/><path d="M7.23,20.57c2.73.35,1.52,2.08,1.52,2.08a10.86,10.86,0,0,1-3.91-1.49,8,8,0,0,1-3.6-4.11A9.25,9.25,0,0,0,7.23,20.57Z" fill="#f7eac8"/><path d="M8.2,23.63c1-.13,1,1,1,1-4-.19-5.62-1.88-5.62-1.88A8.64,8.64,0,0,0,8.2,23.63Z" fill="#f7eac8"/><path d="M8.27,25.33c1.31-.19,1,.8,1,.8A9.34,9.34,0,0,1,4,25.06,12.9,12.9,0,0,0,8.27,25.33Z" fill="#f7eac8"/><path d="M8.88,27c.32-.1.66.66.66.66a8.2,8.2,0,0,1-4.18-.42A13.37,13.37,0,0,0,8.88,27Z" fill="#f7eac8"/><path d="M35,28.38c-.27-.18-.09.84-.09.84a7.23,7.23,0,0,0,4.18.35A10.38,10.38,0,0,1,35,28.38Z" fill="#f7eac8"/><path d="M9.33,28.38a10.38,10.38,0,0,1-4.09,1.19,7.23,7.23,0,0,0,4.18-.35S9.6,28.2,9.33,28.38Z" fill="#f7eac8"/><path d="M10.11,29.87c.24-.19.35.72.35.72A6.86,6.86,0,0,1,7,32.05S8.79,30.92,10.11,29.87Z" fill="#f7eac8"/><path d="M12.41,42.57l9.76,6.33,9.75-6.33L37,16.32,22.16,9,7.31,16.32Z" fill="#f7eac8"/><path d="M13.47,41.09l8.7,5.65,8.69-5.65,4.56-23.4L22.16,11.15,8.91,17.69Z" fill="#357cbd"/><path d="M22.17,50,11.29,43.07,5.9,15.87,22.16,8l16.27,7.88L33,43.07Zm-9.59-7.91,9.59,6.11,9.58-6.11,5-25.33L22.16,9.68,7.56,16.76Z" fill="#357cbd"/><polygon points="30.93 8.24 22.16 5.46 13.4 8.24 16.61 24.44 22.16 22.82 27.72 24.44 30.93 8.24" fill="#f7eac8"/><path d="M28,24.64,22.16,23l-5.79,1.67L13.05,8l9.11-3.21L31.28,8Zm-5.8-2.31,5.33,1.53L30.58,8.44l-8.42-3-8.41,3,3.09,15.42Z" fill="#357cbd"/><polygon points="29.35 9.28 22.16 6.7 14.98 9.28 17.78 24.27 22.16 22.77 26.55 24.27 29.35 9.28" fill="#357cbd"/><polygon points="12.37 17.78 12.72 18.85 13.85 18.85 12.93 19.52 13.28 20.59 12.37 19.93 11.46 20.59 11.8 19.52 10.89 18.85 12.02 18.85 12.37 17.78" fill="#f7eac8"/><polygon points="31.96 17.78 32.31 18.85 33.44 18.85 32.53 19.52 32.87 20.59 31.96 19.93 31.05 20.59 31.4 19.52 30.48 18.85 31.61 18.85 31.96 17.78" fill="#f7eac8"/><circle cx="22.16" cy="29.99" r="11.25" fill="#f7eac8"/><text transform="translate(19.97 17.61) rotate(-7.25)" font-size="2.05" fill="#f7eac8" font-family="Montserrat">2</text><text transform="translate(21.14 17.45) rotate(-1.45)" font-size="2.05" fill="#f7eac8" font-family="Montserrat">0</text><text transform="translate(22.54 17.43) rotate(3.44)" font-size="2.05" fill="#f7eac8" font-family="Montserrat">1</text><text transform="matrix(0.99, 0.14, -0.14, 0.99, 23.3, 17.46)" font-size="2.05" fill="#f7eac8" font-family="Montserrat">9</text><circle cx="22.16" cy="29.99" r="9.73" fill="#357cbd"/><circle cx="22.16" cy="29.99" r="8.76" transform="translate(-11.09 46.87) rotate(-80.44)" fill="#f7eac8"/><path d="M29.81,34.39l-3.12.46-2.36-2.41,1.1-3.39,3.06-1.34,2.45,1.45a8.74,8.74,0,0,0-2-4.76l-.65,3-3,1.34-2.92-2.12V23.32l2.42-1.75a8.75,8.75,0,0,0-5.23,0L22,23.32v3.25l-2.92,2.12L16,27.35l-.65-3a8.74,8.74,0,0,0-2,4.76l2.45-1.45,3.06,1.34L20,32.44l-2.36,2.41-3.12-.46A8.84,8.84,0,0,0,18.4,38l-.48-2.85,2.32-2.36h3.85l2.32,2.36L25.93,38A8.84,8.84,0,0,0,29.81,34.39Z" fill="#357cbd"/><path d="M19.75,13.5v1.12a8.51,8.51,0,0,1,4.83,0V13.5a.29.29,0,0,0,.3-.33,8.24,8.24,0,0,0-5.43,0A.29.29,0,0,0,19.75,13.5Z" fill="#f7eac8"/><path d="M25,11a1.37,1.37,0,0,1,.11.82.53.53,0,0,1-.69.46c-.25-.09-.37-.45-.19-.95a.86.86,0,0,1,.57-.54,1.41,1.41,0,0,1-.43-1.37,1.71,1.71,0,0,1-1,1.05,1.42,1.42,0,0,1,.22.95A.64.64,0,0,1,23,12c-.29,0-.5-.37-.46-.95.08-1.13.76-1.36.76-1.36a1.54,1.54,0,0,1-1.11-1.15,1.52,1.52,0,0,1-1.1,1.15s.68.23.76,1.36c0,.58-.17.95-.46.95a.63.63,0,0,1-.62-.62,1.42,1.42,0,0,1,.22-.95,1.71,1.71,0,0,1-1-1.05,1.41,1.41,0,0,1-.43,1.37.86.86,0,0,1,.57.54c.18.5.06.86-.19.95a.53.53,0,0,1-.69-.46,1.37,1.37,0,0,1,.11-.82A3.2,3.2,0,0,1,18,10l1.47,2.82a8.18,8.18,0,0,1,5.41,0L26.34,10A3.2,3.2,0,0,1,25,11Z" fill="#f7eac8"/><path d="M21.38,13.57a.24.24,0,0,1-.24.24.24.24,0,0,1-.25-.24.25.25,0,0,1,.49,0Z" fill="#357cbd"/><circle cx="20.42" cy="13.66" r="0.21" fill="#357cbd"/><path d="M23,13.57a.24.24,0,0,0,.24.24.24.24,0,0,0,.25-.24.25.25,0,0,0-.49,0Z" fill="#357cbd"/><circle cx="23.91" cy="13.66" r="0.21" fill="#357cbd"/><rect x="21.84" y="13.23" width="0.64" height="0.64" transform="translate(-3.09 19.64) rotate(-45)" fill="#357cbd"/><circle cx="18.04" cy="10.06" r="0.21" fill="#f7eac8"/><path d="M20.2,9.43a.2.2,0,0,1-.21.2.21.21,0,1,1,0-.41A.21.21,0,0,1,20.2,9.43Z" fill="#f7eac8"/><circle cx="26.29" cy="10.06" r="0.21" fill="#f7eac8"/><path d="M24.13,9.43a.2.2,0,0,0,.21.2.21.21,0,1,0,0-.41A.21.21,0,0,0,24.13,9.43Z" fill="#f7eac8"/><circle cx="22.16" cy="8.58" r="0.29" fill="#f7eac8"/><path d="M56.37,19.25a2.24,2.24,0,0,1,.93.19,2.7,2.7,0,0,1,.76.52,2.67,2.67,0,0,1,.51.76,2.34,2.34,0,0,1,.18.91V24.9A2,2,0,0,1,58.39,26a2,2,0,0,1-.92.78,2.17,2.17,0,0,1,.52.31,2.55,2.55,0,0,1,.46.47,2.35,2.35,0,0,1,.31.56,1.63,1.63,0,0,1,.12.59v3.88a2.24,2.24,0,0,1-.19.93,2.53,2.53,0,0,1-.53.76,2.92,2.92,0,0,1-.78.51,2.48,2.48,0,0,1-.93.18H47V32.12H48v-10H47V19.25ZM54.7,25.51a.42.42,0,0,0,.32-.14.48.48,0,0,0,.13-.34V22.58a.42.42,0,0,0-.13-.32.41.41,0,0,0-.32-.13H51.62v3.38Zm0,6.61a.44.44,0,0,0,.45-.46V28.59a.45.45,0,0,0-.13-.32.42.42,0,0,0-.32-.14H51.62v4Z" fill="#357cbd"/><path d="M72.14,19.25v2.88h-1.3l2.39,10H74.4V35H68.7V32.12h1l-.34-1.56h-4L65,32.12h1V35h-5.7V32.12H61.5l2.43-10h-1.3V19.25ZM65.9,28.07h2.91l-1.28-5.94H67.2Z" fill="#357cbd"/><path d="M89,32.12V35h-5.7V32.12h1V28.59h-4v3.53h1.06V35H75.7V32.12h1.06v-10H75.7V19.25h5.69v2.88H80.33v3.79h4V22.13h-1V19.25H89v2.88H87.9v10Z" fill="#357cbd"/><path d="M91.64,32.12v-10H90.47V19.25h5.94v2.88H95.22v10h1.19V35H90.47V32.12ZM95.15,15v3H91.73V15Z" fill="#357cbd"/><path d="M103.32,35h-.54a2.52,2.52,0,0,1-.55-.08,1.87,1.87,0,0,1-.51-.2,1.3,1.3,0,0,1-.41-.4.85.85,0,0,1-.37.38,2,2,0,0,1-.6.2c-.22,0-.46.07-.71.09l-.71,0h-.78V29.67h3.6v2a.49.49,0,0,0,.12.32.38.38,0,0,0,.29.14h2.45a.42.42,0,0,0,.3-.13.44.44,0,0,0,.13-.33V30.45a.38.38,0,0,0-.17-.35l-5.74-3.59a2.23,2.23,0,0,1-.77-.76,2.15,2.15,0,0,1-.21-1v-3.1a2.35,2.35,0,0,1,.19-.91,2.42,2.42,0,0,1,1.24-1.28,2.32,2.32,0,0,1,1-.19h3.72a4.07,4.07,0,0,1,.61.07,3.1,3.1,0,0,1,.58.21,1.2,1.2,0,0,1,.44.4.8.8,0,0,1,.37-.38,2,2,0,0,1,.59-.2,4.05,4.05,0,0,1,.71-.09c.24,0,.48,0,.71,0H109V24.6h-3.59v-2a.47.47,0,0,0-.12-.31.42.42,0,0,0-.32-.14h-2.84a.41.41,0,0,0-.3.13.42.42,0,0,0-.13.32v1.17a.39.39,0,0,0,.17.35l6.16,3.71a1.92,1.92,0,0,1,.79.75,2.45,2.45,0,0,1,.18,1v3a2.24,2.24,0,0,1-.19.93,2.7,2.7,0,0,1-.52.76,2.67,2.67,0,0,1-.76.51,2.34,2.34,0,0,1-.91.18Z" fill="#357cbd"/><path d="M118.53,22.13V25.7h-3.27V19.25h13.91V25.7h-3.25V22.13h-1.86v10h1.23V35h-6.13V32.12h1.22v-10Z" fill="#357cbd"/><path d="M132,32.12v-10H130.8V19.25h5.93v2.88h-1.19v10h1.19V35H130.8V32.12ZM135.48,15v3h-3.43V15Z" fill="#357cbd"/><path d="M146.49,32.85h-.24l-3.49-7.15v6.42h1.06V35h-5.57V32.12h1.06v-10h-1.06V19.25h4.9l3.21,6.87,3.25-6.87h4.87v2.88h-1.06v10h1.06V35h-5.57V32.12H150V25.7Z" fill="#357cbd"/><path d="M157.17,32.12v-10H156V19.25h5.93v2.88h-1.19v10h1.19V35H156V32.12ZM160.68,15v3h-3.43V15Z" fill="#357cbd"/></svg>